<mxfile host="65bd71144e">
    <diagram id="bfUVB2UR2tHDN3Y-zpmY" name="Distribuidora ElÃ©ctrica">
        <mxGraphModel dx="588" dy="611" grid="1" gridSize="10" guides="1" tooltips="1" connect="1" arrows="1" fold="1" page="1" pageScale="1" pageWidth="850" pageHeight="1100" math="0" shadow="0">
            <root>
                <mxCell id="0"/>
                <mxCell id="1" parent="0"/>
                <mxCell id="2" value="Usuario&#xa;- nombre : String" style="shape=rectangle;rounded=0;whiteSpace=wrap;html=1;" vertex="1" parent="1">
                    <mxGeometry x="100" y="100" width="160" height="60" as="geometry"/>
                </mxCell>
                <mxCell id="3" value="Domicilio&#xa;- direccion : String" style="shape=rectangle;rounded=0;whiteSpace=wrap;html=1;" vertex="1" parent="1">
                    <mxGeometry x="400" y="100" width="160" height="60" as="geometry"/>
                </mxCell>
                <mxCell id="4" value="Consumo&#xa;- energiaActiva : double (kWh)&#xa;- energiaReactiva : double (kVArh)&#xa;- fpe : double" style="shape=rectangle;rounded=0;whiteSpace=wrap;html=1;" vertex="1" parent="1">
                    <mxGeometry x="100" y="250" width="220" height="100" as="geometry"/>
                </mxCell>
                <mxCell id="5" value="Factura&#xa;- fechaEmision : Date&#xa;- bonificacion : double&#xa;- montoFinal : double" style="shape=rectangle;rounded=0;whiteSpace=wrap;html=1;" vertex="1" parent="1">
                    <mxGeometry x="400" y="250" width="220" height="100" as="geometry"/>
                </mxCell>
                <mxCell id="6" value="CuadroTarifario&#xa;- precioKWh : double" style="shape=rectangle;rounded=0;whiteSpace=wrap;html=1;" vertex="1" parent="1">
                    <mxGeometry x="250" y="420" width="180" height="60" as="geometry"/>
                </mxCell>
                <mxCell id="7" style="endArrow=diamondThin;endFill=1;" edge="1" parent="1" source="2" target="3">
                    <mxGeometry relative="1" as="geometry"/>
                </mxCell>
                <mxCell id="8" style="endArrow=oval;endFill=1;" edge="1" parent="1" source="2" target="4">
                    <mxGeometry relative="1" as="geometry"/>
                </mxCell>
                <mxCell id="9" style="endArrow=block;endFill=1;" edge="1" parent="1" source="4" target="5">
                    <mxGeometry relative="1" as="geometry"/>
                </mxCell>
                <mxCell id="10" style="endArrow=open;endFill=0;dashed=1;" edge="1" parent="1" source="5" target="6">
                    <mxGeometry relative="1" as="geometry"/>
                </mxCell>
            </root>
        </mxGraphModel>
    </diagram>
</mxfile>